<svg xmlns="http://www.w3.org/2000/svg" width="60" height="60" viewBox="0 0 60 60"><defs><filter id="a" style="color-interpolation-filters:sRGB"><feFlood flood-color="#000" flood-opacity=".498" result="flood"/><feComposite in="flood" in2="SourceGraphic" operator="in" result="composite1"/><feGaussianBlur in="composite1" result="blur" stdDeviation="16.667"/><feOffset dx=".5" dy="-24.5" result="offset"/><feComposite in="SourceGraphic" in2="offset" result="fbSourceGraphic"/><feColorMatrix in="fbSourceGraphic" result="fbSourceGraphicAlpha" values="0 0 0 -1 0 0 0 0 -1 0 0 0 0 -1 0 0 0 0 1 0"/><feFlood flood-color="#000" flood-opacity=".498" result="flood"/><feComposite in="flood" in2="fbSourceGraphic" operator="in" result="composite1"/><feGaussianBlur in="composite1" result="blur" stdDeviation="16.7"/><feOffset dx=".5" dy="25.3" result="offset"/><feComposite in="fbSourceGraphic" in2="offset" result="composite2"/></filter></defs><g style="display:inline"><path d="M.777 1026.192s-.172-2.985-.164-4.047c.01-1.524.22-3.71.22-3.71l7.814-1.255s.663-2.276 1.12-3.367c.444-1.063 1.568-3.079 1.568-3.079l-4.465-6.638s1.646-1.998 2.53-2.89c.942-.95 2.947-2.614 2.947-2.614l6.512 4.722s1.838-1.006 2.745-1.383c1.046-.435 3.113-1.054 3.113-1.054l1.487-8.037s2.251-.266 3.681-.254c1.18.013 4.141.292 4.141.292l1.265 7.944s2.056.618 3.018 1.013c.909.373 2.594 1.292 2.594 1.292l6.695-4.675s2.138 1.723 3.1 2.677c.925.916 2.562 2.935 2.562 2.935l-4.628 6.445s1.1 1.962 1.555 2.99c.406.914 1.03 2.838 1.03 2.838l7.908 1.442s.398 2.63.45 3.945c.054 1.314-.132 3.944-.132 3.944l-7.757 1.237s-.522 2.286-.908 3.39c-.382 1.089-1.396 3.186-1.396 3.186l4.59 6.783s-1.262 1.682-2.171 2.656c-.815.872-3 2.88-3 2.88l-6.315-4.618s-1.82 1.15-2.872 1.637c-1.195.553-3.864 1.436-3.864 1.436l-1.414 8.057s-2.335.217-3.551.243c-1.29.028-3.963-.093-3.963-.093l-1.2-7.945s-2.34-.579-3.538-1.054c-1.127-.447-3.435-1.713-3.435-1.713l-6.585 4.598s-1.99-1.62-2.879-2.51c-.888-.89-2.454-2.83-2.454-2.83l4.642-6.478s-1.2-2.221-1.668-3.379-1.139-3.564-1.139-3.564z" style="fill:#151515;fill-opacity:1;fill-rule:evenodd;stroke:#000;stroke-width:.02623214px;stroke-linecap:butt;stroke-linejoin:miter;stroke-opacity:1" transform="translate(0 -992.362)"/></g><g style="display:inline" transform="translate(0 -992.362)"><ellipse cx="-712.505" cy="755.169" rx="5.137" ry="23.688" style="display:inline;fill:none;fill-opacity:1;stroke:#fff;stroke-width:.65594494;stroke-miterlimit:4;stroke-dasharray:none;stroke-opacity:1" transform="matrix(.71741 -.69665 .71741 .69665 0 0)"/><ellipse cx="733.908" cy="690.428" rx="5.137" ry="23.688" style="display:inline;fill:none;fill-opacity:1;stroke:#fff;stroke-width:.65594494;stroke-miterlimit:4;stroke-dasharray:none;stroke-opacity:1" transform="matrix(.69665 .71741 -.69665 .71741 0 0)"/><ellipse cx="37.989" cy="1008.28" rx="1.349" ry="1.312" style="fill:#fff;fill-opacity:1;stroke:none;stroke-width:25;stroke-miterlimit:4;stroke-dasharray:none;stroke-opacity:1"/><ellipse cx="45.109" cy="1031.551" rx="1.349" ry="1.312" style="display:inline;fill:#fff;fill-opacity:1;stroke:none;stroke-width:25;stroke-miterlimit:4;stroke-dasharray:none;stroke-opacity:1"/></g><g style="display:inline"><path d="M12.668 1017.017h34.955v10.755H12.668z" style="fill:#151515;fill-opacity:1;stroke:none;stroke-width:25;stroke-miterlimit:4;stroke-dasharray:none;stroke-opacity:1" transform="translate(0 -992.362)"/></g><g style="display:inline"><g style="font-style:normal;font-weight:400;font-size:562.5px;line-height:125%;font-family:sans-serif;letter-spacing:0;word-spacing:0;display:inline;fill:#fff;fill-opacity:1;stroke:none;stroke-width:1px;stroke-linecap:butt;stroke-linejoin:miter;stroke-opacity:1;filter:url(#a)" transform="translate(24.286 15.504)scale(.02623)"><path d="M-409.177 341.213h285.37v79.925h-179.627v76.355h168.915v79.926h-168.915v173.858h-105.743zM-35.935 341.213H69.808v410.064H-35.935z" style="text-align:center;letter-spacing:-11.27999973px;text-anchor:middle"/><path d="M142.573 341.213H487.27v63.995l-220 266.144h226.318v79.925h-357.33v-63.995l220-266.144H142.573zM550.166 341.213h344.696v63.995L674.861 671.352h226.318v79.925H543.85v-63.995L763.85 421.138H550.166z" style="font-style:normal;font-variant:normal;font-weight:700;font-stretch:normal;font-size:562.5px;font-family:sans-serif;-inkscape-font-specification:&quot;sans-serif Bold&quot;;text-align:center;text-anchor:middle;fill:#fff;fill-opacity:1"/></g></g></svg>